<svg width="1440" height="35" viewBox="0 0 1440 35" fill="none" xmlns="http://www.w3.org/2000/svg">
<path opacity="0.25" d="M0 34C805.545 34 1210.54 34 1215 34C1219.46 34 1225.96 29.5034 1234.5 20.5103L1245.47 9.65724C1257.24 -1.993 1276.13 -1.86918 1287.76 9.93444L1300.5 22.8737C1309.3 30.2912 1315.8 34 1320 34C1324.2 34 1364.2 34 1440 34" stroke="#262F53"/>
<path d="M1266.44 17.4393C1266.98 16.8986 1267.83 16.857 1268.42 17.3146L1268.56 17.4393L1277.56 26.4393C1278.15 27.0251 1278.15 27.9749 1277.56 28.5607C1277.02 29.1014 1276.17 29.143 1275.58 28.6854L1275.44 28.5607L1267.5 20.6225L1259.56 28.5607C1259.02 29.1014 1258.17 29.143 1257.58 28.6854L1257.44 28.5607C1256.9 28.0199 1256.86 27.1691 1257.31 26.5807L1257.44 26.4393L1266.44 17.4393Z" fill="#262F53"/>
</svg>
